<svg width="121" height="19" viewBox="0 0 121 19" fill="none" xmlns="http://www.w3.org/2000/svg">
<path d="M68.7819 15.0905C68.5259 15.0905 68.2954 15.044 68.0903 14.9509C67.887 14.8561 67.7257 14.7166 67.6065 14.5324C67.489 14.3481 67.4303 14.1209 67.4303 13.8508C67.4303 13.6183 67.4724 13.426 67.5565 13.2739C67.6407 13.1219 67.7555 13.0002 67.901 12.909C68.0465 12.8177 68.2104 12.7489 68.3927 12.7024C68.5768 12.6541 68.767 12.6192 68.9633 12.5977C69.2 12.5727 69.3919 12.5503 69.5392 12.5306C69.6864 12.5092 69.7933 12.477 69.86 12.434C69.9283 12.3893 69.9625 12.3204 69.9625 12.2274V12.2113C69.9625 12.0092 69.9038 11.8527 69.7863 11.7418C69.6689 11.6308 69.4997 11.5754 69.2788 11.5754C69.0457 11.5754 68.8608 11.6273 68.724 11.731C68.589 11.8348 68.4979 11.9573 68.4506 12.0986L67.5618 11.9698C67.6319 11.7194 67.7476 11.5101 67.9089 11.342C68.0702 11.172 68.2674 11.045 68.5005 10.9609C68.7337 10.8751 68.9913 10.8321 69.2736 10.8321C69.4682 10.8321 69.6619 10.8554 69.8547 10.9019C70.0475 10.9484 70.2237 11.0253 70.3832 11.1327C70.5427 11.2382 70.6707 11.3822 70.7671 11.5647C70.8653 11.7471 70.9144 11.9752 70.9144 12.2489V15.0073H69.9993V14.4411H69.9678C69.9099 14.5556 69.8284 14.6629 69.7232 14.7631C69.6198 14.8615 69.4892 14.9411 69.3314 15.0019C69.1754 15.061 68.9922 15.0905 68.7819 15.0905ZM69.029 14.3767C69.2201 14.3767 69.3858 14.3383 69.526 14.2613C69.6663 14.1826 69.7741 14.0789 69.8494 13.9501C69.9266 13.8213 69.9651 13.6809 69.9651 13.5288V13.0431C69.9353 13.0682 69.8845 13.0914 69.8126 13.1129C69.7425 13.1344 69.6636 13.1532 69.576 13.1693C69.4883 13.1854 69.4016 13.1997 69.3157 13.2122C69.2298 13.2247 69.1553 13.2354 69.0921 13.2444C68.9502 13.2641 68.8231 13.2963 68.7109 13.341C68.5987 13.3857 68.5102 13.4483 68.4453 13.5288C68.3804 13.6075 68.348 13.7095 68.348 13.8347C68.348 14.0136 68.412 14.1487 68.54 14.2399C68.6679 14.3311 68.8309 14.3767 69.029 14.3767Z" fill="#555555"/>
<path d="M75.4699 15.0878C75.0668 15.0878 74.7205 14.9975 74.4313 14.8168C74.1438 14.6361 73.9221 14.3866 73.766 14.0682C73.6118 13.7479 73.5347 13.3794 73.5347 12.9626C73.5347 12.5441 73.6135 12.1747 73.7713 11.8545C73.9291 11.5325 74.1517 11.282 74.4392 11.1031C74.7284 10.9225 75.0703 10.8321 75.4647 10.8321C75.7925 10.8321 76.0826 10.8938 76.335 11.0173C76.5892 11.1389 76.7917 11.3115 76.9425 11.5351C77.0932 11.757 77.1791 12.0163 77.2001 12.3133H76.2903C76.2535 12.1147 76.1659 11.9493 76.0274 11.8169C75.8907 11.6827 75.7075 11.6156 75.4778 11.6156C75.2832 11.6156 75.1123 11.6693 74.9651 11.7766C74.8178 11.8822 74.703 12.0342 74.6206 12.2328C74.54 12.4314 74.4997 12.6693 74.4997 12.9465C74.4997 13.2274 74.54 13.4689 74.6206 13.671C74.7013 13.8714 74.8143 14.0261 74.9598 14.1352C75.1071 14.2426 75.2797 14.2962 75.4778 14.2962C75.6181 14.2962 75.7434 14.2694 75.8539 14.2157C75.966 14.1603 76.0598 14.0807 76.1352 13.9769C76.2106 13.8732 76.2623 13.7471 76.2903 13.5986H77.2001C77.1774 13.8902 77.0932 14.1487 76.9477 14.374C76.8022 14.5977 76.6041 14.773 76.3535 14.9C76.1028 15.0252 75.8083 15.0878 75.4699 15.0878Z" fill="#555555"/>
<path d="M78.9336 12.5924V15.0073H77.9818V9.51196H78.9126V11.5861H78.9599C79.0546 11.3536 79.201 11.1702 79.399 11.0361C79.5989 10.9001 79.8531 10.8321 80.1616 10.8321C80.4421 10.8321 80.6866 10.8921 80.8952 11.0119C81.1038 11.1318 81.2651 11.3071 81.379 11.5378C81.4947 11.7686 81.5526 12.0503 81.5526 12.3831V15.0073H80.6007V12.5333C80.6007 12.2561 80.5306 12.0405 80.3904 11.8867C80.2519 11.731 80.0573 11.6532 79.8066 11.6532C79.6383 11.6532 79.4876 11.6908 79.3543 11.7659C79.2229 11.8393 79.1194 11.9457 79.0441 12.0852C78.9704 12.2247 78.9336 12.3938 78.9336 12.5924Z" fill="#555555"/>
<path d="M83.6851 15.0905C83.4292 15.0905 83.1986 15.044 82.9935 14.9509C82.7902 14.8561 82.6289 14.7166 82.5097 14.5324C82.3923 14.3481 82.3335 14.1209 82.3335 13.8508C82.3335 13.6183 82.3756 13.426 82.4598 13.2739C82.5439 13.1219 82.6587 13.0002 82.8042 12.909C82.9497 12.8177 83.1136 12.7489 83.2959 12.7024C83.48 12.6541 83.6702 12.6192 83.8665 12.5977C84.1032 12.5727 84.2951 12.5503 84.4424 12.5306C84.5896 12.5092 84.6966 12.477 84.7632 12.434C84.8315 12.3893 84.8657 12.3204 84.8657 12.2274V12.2113C84.8657 12.0092 84.807 11.8527 84.6896 11.7418C84.5721 11.6308 84.4029 11.5754 84.1821 11.5754C83.9489 11.5754 83.764 11.6273 83.6272 11.731C83.4923 11.8348 83.4011 11.9573 83.3538 12.0986L82.465 11.9698C82.5351 11.7194 82.6508 11.5101 82.8121 11.342C82.9734 11.172 83.1706 11.045 83.4037 10.9609C83.6369 10.8751 83.8946 10.8321 84.1768 10.8321C84.3714 10.8321 84.5651 10.8554 84.7579 10.9019C84.9507 10.9484 85.1269 11.0253 85.2864 11.1327C85.446 11.2382 85.5739 11.3822 85.6703 11.5647C85.7685 11.7471 85.8176 11.9752 85.8176 12.2489V15.0073H84.9025V14.4411H84.871C84.8131 14.5556 84.7316 14.6629 84.6264 14.7631C84.523 14.8615 84.3924 14.9411 84.2346 15.0019C84.0786 15.061 83.8954 15.0905 83.6851 15.0905ZM83.9323 14.3767C84.1233 14.3767 84.289 14.3383 84.4292 14.2613C84.5695 14.1826 84.6773 14.0789 84.7527 13.9501C84.8298 13.8213 84.8684 13.6809 84.8684 13.5288V13.0431C84.8386 13.0682 84.7877 13.0914 84.7159 13.1129C84.6457 13.1344 84.5668 13.1532 84.4792 13.1693C84.3915 13.1854 84.3048 13.1997 84.2189 13.2122C84.133 13.2247 84.0585 13.2354 83.9954 13.2444C83.8534 13.2641 83.7263 13.2963 83.6141 13.341C83.5019 13.3857 83.4134 13.4483 83.3485 13.5288C83.2837 13.6075 83.2512 13.7095 83.2512 13.8347C83.2512 14.0136 83.3152 14.1487 83.4432 14.2399C83.5711 14.3311 83.7342 14.3767 83.9323 14.3767Z" fill="#555555"/>
<path d="M88.7915 10.8858V11.6371H86.4697V10.8858H88.7915ZM87.0429 9.89835H87.9948V13.7676C87.9948 13.8982 88.0141 13.9984 88.0527 14.0682C88.093 14.1361 88.1456 14.1826 88.2104 14.2077C88.2753 14.2327 88.3472 14.2452 88.426 14.2452C88.4856 14.2452 88.54 14.2408 88.5891 14.2318C88.6399 14.2229 88.6785 14.2148 88.7048 14.2077L88.8652 14.967C88.8143 14.9849 88.7416 15.0046 88.6469 15.0261C88.554 15.0475 88.4401 15.0601 88.3051 15.0636C88.0667 15.0708 87.8519 15.0341 87.6609 14.9536C87.4698 14.8713 87.3181 14.7443 87.206 14.5726C87.0955 14.4009 87.0412 14.1862 87.0429 13.9286V9.89835Z" fill="#555555"/>
<path d="M90.7051 14.256L90.671 14.5511C90.6464 14.7765 90.6026 15.0055 90.5395 15.2381C90.4781 15.4724 90.4133 15.688 90.3449 15.8847C90.2765 16.0815 90.2213 16.2362 90.1792 16.3489H89.5377C89.5622 16.2398 89.5955 16.0913 89.6376 15.9035C89.6814 15.7157 89.7235 15.5046 89.7638 15.2703C89.8041 15.0359 89.8313 14.798 89.8453 14.5565L89.8637 14.256H90.7051Z" fill="#555555"/>
<path d="M95.4586 10.8858V11.6371H93.1367V10.8858H95.4586ZM93.71 9.89835H94.6618V13.7676C94.6618 13.8982 94.6811 13.9984 94.7197 14.0682C94.76 14.1361 94.8126 14.1826 94.8775 14.2077C94.9423 14.2327 95.0142 14.2452 95.0931 14.2452C95.1527 14.2452 95.207 14.2408 95.2561 14.2318C95.3069 14.2229 95.3455 14.2148 95.3718 14.2077L95.5322 14.967C95.4814 14.9849 95.4086 15.0046 95.314 15.0261C95.2211 15.0475 95.1071 15.0601 94.9721 15.0636C94.7337 15.0708 94.519 15.0341 94.3279 14.9536C94.1368 14.8713 93.9852 14.7443 93.873 14.5726C93.7626 14.4009 93.7082 14.1862 93.71 13.9286V9.89835Z" fill="#555555"/>
<path d="M97.2933 12.5924V15.0073H96.3414V9.51196H97.2723V11.5861H97.3196C97.4142 11.3536 97.5606 11.1702 97.7587 11.0361C97.9585 10.9001 98.2127 10.8321 98.5213 10.8321C98.8017 10.8321 99.0463 10.8921 99.2549 11.0119C99.4635 11.1318 99.6248 11.3071 99.7387 11.5378C99.8544 11.7686 99.9123 12.0503 99.9123 12.3831V15.0073H98.9604V12.5333C98.9604 12.2561 98.8903 12.0405 98.75 11.8867C98.6115 11.731 98.417 11.6532 98.1663 11.6532C97.998 11.6532 97.8472 11.6908 97.714 11.7659C97.5825 11.8393 97.4791 11.9457 97.4037 12.0852C97.3301 12.2247 97.2933 12.3938 97.2933 12.5924Z" fill="#555555"/>
<path d="M102.045 15.0905C101.789 15.0905 101.558 15.044 101.353 14.9509C101.15 14.8561 100.989 14.7166 100.869 14.5324C100.752 14.3481 100.693 14.1209 100.693 13.8508C100.693 13.6183 100.735 13.426 100.819 13.2739C100.904 13.1219 101.018 13.0002 101.164 12.909C101.309 12.8177 101.473 12.7489 101.656 12.7024C101.84 12.6541 102.03 12.6192 102.226 12.5977C102.463 12.5727 102.655 12.5503 102.802 12.5306C102.949 12.5092 103.056 12.477 103.123 12.434C103.191 12.3893 103.225 12.3204 103.225 12.2274V12.2113C103.225 12.0092 103.167 11.8527 103.049 11.7418C102.932 11.6308 102.763 11.5754 102.542 11.5754C102.309 11.5754 102.124 11.6273 101.987 11.731C101.852 11.8348 101.761 11.9573 101.713 12.0986L100.825 11.9698C100.895 11.7194 101.01 11.5101 101.172 11.342C101.333 11.172 101.53 11.045 101.763 10.9609C101.997 10.8751 102.254 10.8321 102.536 10.8321C102.731 10.8321 102.925 10.8554 103.118 10.9019C103.31 10.9484 103.487 11.0253 103.646 11.1327C103.806 11.2382 103.934 11.3822 104.03 11.5647C104.128 11.7471 104.177 11.9752 104.177 12.2489V15.0073H103.262V14.4411H103.231C103.173 14.5556 103.091 14.6629 102.986 14.7631C102.883 14.8615 102.752 14.9411 102.594 15.0019C102.438 15.061 102.255 15.0905 102.045 15.0905ZM102.292 14.3767C102.483 14.3767 102.649 14.3383 102.789 14.2613C102.929 14.1826 103.037 14.0789 103.112 13.9501C103.189 13.8213 103.228 13.6809 103.228 13.5288V13.0431C103.198 13.0682 103.147 13.0914 103.076 13.1129C103.005 13.1344 102.927 13.1532 102.839 13.1693C102.751 13.1854 102.664 13.1997 102.579 13.2122C102.493 13.2247 102.418 13.2354 102.355 13.2444C102.213 13.2641 102.086 13.2963 101.974 13.341C101.862 13.3857 101.773 13.4483 101.708 13.5288C101.643 13.6075 101.611 13.7095 101.611 13.8347C101.611 14.0136 101.675 14.1487 101.803 14.2399C101.931 14.3311 102.094 14.3767 102.292 14.3767Z" fill="#555555"/>
<path d="M107.151 10.8858V11.6371H104.829V10.8858H107.151ZM105.403 9.89835H106.354V13.7676C106.354 13.8982 106.374 13.9984 106.412 14.0682C106.453 14.1361 106.505 14.1826 106.57 14.2077C106.635 14.2327 106.707 14.2452 106.786 14.2452C106.845 14.2452 106.9 14.2408 106.949 14.2318C107 14.2229 107.038 14.2148 107.064 14.2077L107.225 14.967C107.174 14.9849 107.101 15.0046 107.007 15.0261C106.914 15.0475 106.8 15.0601 106.665 15.0636C106.426 15.0708 106.212 15.0341 106.021 14.9536C105.829 14.8713 105.678 14.7443 105.566 14.5726C105.455 14.4009 105.401 14.1862 105.403 13.9286V9.89835Z" fill="#555555"/>
<path d="M108.943 9.51196V10.0594C108.943 10.2168 108.913 10.3804 108.853 10.5504C108.795 10.7185 108.716 10.8795 108.614 11.0334C108.512 11.1854 108.396 11.316 108.267 11.4251L107.825 11.1327C107.921 10.9842 108.006 10.8241 108.077 10.6524C108.149 10.4788 108.185 10.283 108.185 10.0647V9.51196H108.943Z" fill="#555555"/>
<path d="M112.383 11.9752L111.515 12.0718C111.491 11.9824 111.448 11.8983 111.387 11.8196C111.327 11.7409 111.246 11.6774 111.145 11.6291C111.043 11.5808 110.919 11.5566 110.771 11.5566C110.573 11.5566 110.407 11.6004 110.272 11.6881C110.139 11.7757 110.073 11.8893 110.075 12.0289C110.073 12.1487 110.116 12.2462 110.203 12.3213C110.293 12.3965 110.44 12.4582 110.645 12.5065L111.334 12.6568C111.716 12.7408 112 12.8741 112.186 13.0566C112.374 13.239 112.468 13.4778 112.47 13.773C112.468 14.0324 112.394 14.2613 112.246 14.4599C112.101 14.6567 111.899 14.8105 111.639 14.9214C111.38 15.0323 111.082 15.0878 110.745 15.0878C110.251 15.0878 109.853 14.9823 109.551 14.7712C109.25 14.5583 109.07 14.2622 109.012 13.883L109.94 13.7918C109.982 13.9778 110.072 14.1182 110.209 14.213C110.345 14.3079 110.523 14.3553 110.742 14.3553C110.969 14.3553 111.15 14.3079 111.287 14.213C111.425 14.1182 111.494 14.0011 111.494 13.8615C111.494 13.7435 111.45 13.646 111.36 13.5691C111.273 13.4921 111.136 13.4331 110.95 13.392L110.261 13.2444C109.874 13.1621 109.587 13.0235 109.401 12.8285C109.216 12.6317 109.124 12.3831 109.125 12.0825C109.124 11.8285 109.191 11.6085 109.328 11.4224C109.466 11.2346 109.658 11.0897 109.904 10.9878C110.151 10.884 110.436 10.8321 110.758 10.8321C111.231 10.8321 111.604 10.935 111.876 11.1407C112.149 11.3464 112.318 11.6246 112.383 11.9752Z" fill="#555555"/>
<path d="M115.092 15.0073V10.8858H116.043V15.0073H115.092ZM115.57 10.3008C115.419 10.3008 115.29 10.2499 115.181 10.1479C115.072 10.0441 115.018 9.91982 115.018 9.77492C115.018 9.62824 115.072 9.50391 115.181 9.40195C115.29 9.29819 115.419 9.24632 115.57 9.24632C115.723 9.24632 115.852 9.29819 115.959 9.40195C116.068 9.50391 116.122 9.62824 116.122 9.77492C116.122 9.91982 116.068 10.0441 115.959 10.1479C115.852 10.2499 115.723 10.3008 115.57 10.3008Z" fill="#555555"/>
<path d="M119.039 10.8858V11.6371H116.717V10.8858H119.039ZM117.29 9.89835H118.242V13.7676C118.242 13.8982 118.262 13.9984 118.3 14.0682C118.34 14.1361 118.393 14.1826 118.458 14.2077C118.523 14.2327 118.595 14.2452 118.674 14.2452C118.733 14.2452 118.788 14.2408 118.837 14.2318C118.887 14.2229 118.926 14.2148 118.952 14.2077L119.113 14.967C119.062 14.9849 118.989 15.0046 118.894 15.0261C118.802 15.0475 118.688 15.0601 118.553 15.0636C118.314 15.0708 118.099 15.0341 117.908 14.9536C117.717 14.8713 117.566 14.7443 117.453 14.5726C117.343 14.4009 117.289 14.1862 117.29 13.9286V9.89835Z" fill="#555555"/>
<path d="M120.422 15.0663C120.262 15.0663 120.125 15.0091 120.011 14.8946C119.897 14.7801 119.841 14.6406 119.843 14.476C119.841 14.315 119.897 14.1773 120.011 14.0628C120.125 13.9483 120.262 13.8911 120.422 13.8911C120.576 13.8911 120.71 13.9483 120.824 14.0628C120.94 14.1773 120.998 14.315 121 14.476C120.998 14.5851 120.97 14.6844 120.916 14.7739C120.863 14.8633 120.793 14.9348 120.705 14.9885C120.62 15.0404 120.525 15.0663 120.422 15.0663Z" fill="#555555"/>
<path d="M1.64386 4.36009H4.5376V15.5341C4.5376 16.3567 4.3791 17.0221 4.0621 17.5305C3.74511 18.0388 3.28999 18.4108 2.69675 18.6465C2.10804 18.8822 1.40385 19 0.584182 19C0.484554 19 0.389455 18.9977 0.298884 18.9931C0.203785 18.9931 0.104157 18.9908 0 18.9861V16.6779C0.0769853 16.6825 0.144913 16.6848 0.203785 16.6848C0.258127 16.6894 0.316998 16.6917 0.380398 16.6917C0.846838 16.6917 1.17289 16.5901 1.35856 16.3867C1.54876 16.188 1.64386 15.8876 1.64386 15.4856V4.36009ZM3.08394 2.9876C2.65826 2.9876 2.29144 2.84203 1.9835 2.55089C1.67556 2.25514 1.52159 1.90162 1.52159 1.49033C1.52159 1.08367 1.67556 0.734769 1.9835 0.443634C2.29144 0.147878 2.65826 0 3.08394 0C3.51868 0 3.88776 0.147878 4.19117 0.443634C4.49911 0.734769 4.65308 1.08367 4.65308 1.49033C4.65308 1.90162 4.49911 2.25514 4.19117 2.55089C3.88776 2.84203 3.51868 2.9876 3.08394 2.9876Z" fill="#5C5AEA"/>
<path d="M11.6785 15.2014C10.5464 15.2014 9.5773 14.9726 8.77122 14.5151C7.96514 14.053 7.347 13.4107 6.91679 12.5881C6.48657 11.7609 6.27147 10.802 6.27147 9.71142C6.27147 8.62082 6.48657 7.66423 6.91679 6.84166C7.347 6.01447 7.96514 5.37213 8.77122 4.91463C9.5773 4.45251 10.5464 4.22145 11.6785 4.22145C12.702 4.22145 13.5873 4.41092 14.3345 4.78986C15.0863 5.16417 15.6682 5.69561 16.0803 6.38417C16.4924 7.0681 16.7007 7.87219 16.7052 8.79642H13.2273C13.1775 8.23726 13.019 7.81211 12.7518 7.52098C12.4892 7.22522 12.1495 7.07734 11.7329 7.07734C11.4068 7.07734 11.1215 7.17439 10.877 7.36848C10.6325 7.55795 10.4423 7.84677 10.3064 8.23495C10.1705 8.61851 10.1026 9.10142 10.1026 9.68369C10.1026 10.266 10.1705 10.7512 10.3064 11.1394C10.4423 11.5229 10.6325 11.8117 10.877 12.0058C11.1215 12.1953 11.4068 12.29 11.7329 12.29C12.0091 12.29 12.2537 12.2253 12.4665 12.0959C12.6794 11.9619 12.8514 11.7678 12.9828 11.5137C13.1186 11.2549 13.2001 10.9407 13.2273 10.571H16.7052C16.6916 11.5091 16.4811 12.327 16.0735 13.0248C15.6659 13.718 15.0885 14.254 14.3413 14.633C13.5987 15.0119 12.7111 15.2014 11.6785 15.2014Z" fill="#5C5AEA"/>
<path d="M22.0019 9.01824V15.0073H18.2523V0.811018H21.8661V6.38417H21.9748C22.2102 5.70485 22.602 5.17573 23.1499 4.79679C23.6979 4.41323 24.3568 4.22145 25.1266 4.22145C25.8648 4.22145 26.5056 4.39244 27.049 4.7344C27.5969 5.07637 28.0204 5.54773 28.3193 6.14849C28.6227 6.74924 28.7721 7.4378 28.7676 8.21416V15.0073H25.0179V9.01824C25.0225 8.49143 24.8934 8.07783 24.6308 7.77745C24.3726 7.47708 24.0035 7.32689 23.5235 7.32689C23.2201 7.32689 22.9529 7.39621 22.722 7.53484C22.4955 7.66886 22.3189 7.86294 22.1921 8.11711C22.0699 8.36665 22.0065 8.66703 22.0019 9.01824Z" fill="#5C5AEA"/>
<path d="M33.5259 15.1737C32.8603 15.1737 32.2715 15.0628 31.7598 14.8409C31.2526 14.6145 30.8541 14.2725 30.5643 13.815C30.2745 13.3575 30.1295 12.7753 30.1295 12.0682C30.1295 11.486 30.2269 10.9892 30.4216 10.5779C30.6164 10.162 30.8881 9.82233 31.2368 9.55892C31.5855 9.29551 31.9908 9.09449 32.4527 8.95585C32.9191 8.81722 33.4218 8.72711 33.9607 8.68552C34.5449 8.6393 35.0136 8.58385 35.3668 8.51915C35.7246 8.44983 35.9827 8.3551 36.1412 8.23495C36.2997 8.11018 36.3789 7.94613 36.3789 7.74279V7.71507C36.3789 7.4378 36.2748 7.22522 36.0665 7.07734C35.8581 6.92947 35.591 6.85553 35.2649 6.85553C34.9072 6.85553 34.6151 6.9364 34.3886 7.09814C34.1667 7.25526 34.0331 7.49787 33.9879 7.82597H30.5371C30.5824 7.17901 30.7839 6.58288 31.1417 6.03758C31.504 5.48766 32.0315 5.04864 32.7244 4.72054C33.4173 4.38782 34.2822 4.22145 35.3192 4.22145C36.0665 4.22145 36.7367 4.31157 37.3299 4.49179C37.9232 4.6674 38.4281 4.91463 38.8447 5.23349C39.2613 5.54773 39.5783 5.91743 39.7957 6.34258C40.0176 6.7631 40.1286 7.2206 40.1286 7.71507V15.0073H36.6235V13.51H36.542C36.3336 13.9075 36.08 14.2286 35.7812 14.4735C35.4868 14.7185 35.1494 14.8964 34.769 15.0073C34.3932 15.1182 33.9788 15.1737 33.5259 15.1737ZM34.7487 12.7614C35.034 12.7614 35.3011 12.7013 35.5502 12.5812C35.8038 12.461 36.0099 12.2877 36.1684 12.0613C36.3269 11.8349 36.4061 11.5599 36.4061 11.2364V10.3491C36.3065 10.3907 36.2001 10.43 36.0868 10.467C35.9782 10.504 35.8604 10.5386 35.7336 10.571C35.6113 10.6033 35.48 10.6333 35.3396 10.6611C35.2038 10.6888 35.0611 10.7142 34.9117 10.7373C34.6219 10.7835 34.3841 10.8598 34.1984 10.9661C34.0173 11.0677 33.8814 11.1948 33.7909 11.3473C33.7048 11.4952 33.6618 11.6616 33.6618 11.8464C33.6618 12.1422 33.7637 12.3686 33.9675 12.5257C34.1713 12.6828 34.4317 12.7614 34.7487 12.7614Z" fill="#5C5AEA"/>
<path d="M44.8275 15.1737C44.1618 15.1737 43.5731 15.0628 43.0614 14.8409C42.5542 14.6145 42.1557 14.2725 41.8658 13.815C41.576 13.3575 41.4311 12.7753 41.4311 12.0682C41.4311 11.486 41.5284 10.9892 41.7232 10.5779C41.9179 10.162 42.1896 9.82233 42.5383 9.55892C42.887 9.29551 43.2923 9.09449 43.7542 8.95585C44.2207 8.81722 44.7233 8.72711 45.2622 8.68552C45.8464 8.6393 46.3151 8.58385 46.6684 8.51915C47.0261 8.44983 47.2842 8.3551 47.4427 8.23495C47.6012 8.11018 47.6805 7.94613 47.6805 7.74279V7.71507C47.6805 7.4378 47.5763 7.22522 47.368 7.07734C47.1597 6.92947 46.8925 6.85553 46.5665 6.85553C46.2087 6.85553 45.9166 6.9364 45.6902 7.09814C45.4683 7.25526 45.3347 7.49787 45.2894 7.82597H41.8387C41.8839 7.17901 42.0855 6.58288 42.4432 6.03758C42.8055 5.48766 43.3331 5.04864 44.0259 4.72054C44.7188 4.38782 45.5838 4.22145 46.6208 4.22145C47.368 4.22145 48.0382 4.31157 48.6315 4.49179C49.2247 4.6674 49.7296 4.91463 50.1463 5.23349C50.5629 5.54773 50.8799 5.91743 51.0973 6.34258C51.3192 6.7631 51.4301 7.2206 51.4301 7.71507V15.0073H47.925V13.51H47.8435C47.6352 13.9075 47.3816 14.2286 47.0827 14.4735C46.7884 14.7185 46.451 14.8964 46.0706 15.0073C45.6947 15.1182 45.2803 15.1737 44.8275 15.1737ZM46.0502 12.7614C46.3355 12.7614 46.6027 12.7013 46.8518 12.5812C47.1054 12.461 47.3114 12.2877 47.4699 12.0613C47.6284 11.8349 47.7076 11.5599 47.7076 11.2364V10.3491C47.608 10.3907 47.5016 10.43 47.3884 10.467C47.2797 10.504 47.162 10.5386 47.0352 10.571C46.9129 10.6033 46.7816 10.6333 46.6412 10.6611C46.5053 10.6888 46.3627 10.7142 46.2132 10.7373C45.9234 10.7835 45.6857 10.8598 45.5 10.9661C45.3188 11.0677 45.183 11.1948 45.0924 11.3473C45.0064 11.4952 44.9634 11.6616 44.9634 11.8464C44.9634 12.1422 45.0652 12.3686 45.269 12.5257C45.4728 12.6828 45.7332 12.7614 46.0502 12.7614Z" fill="#5C5AEA"/>
<path d="M58.9657 4.36009V7.1328H52.0914V4.36009H58.9657ZM53.4228 1.80919H57.1724V11.583C57.1724 11.7309 57.1973 11.8556 57.2471 11.9573C57.297 12.0544 57.3739 12.1283 57.4781 12.1791C57.5823 12.2253 57.7158 12.2484 57.8789 12.2484C57.9921 12.2484 58.1234 12.2346 58.2729 12.2069C58.4268 12.1791 58.54 12.156 58.6125 12.1375L59.1559 14.8271C58.9884 14.8779 58.7484 14.9403 58.4359 15.0142C58.1279 15.0882 57.7611 15.1367 57.3354 15.1598C56.475 15.206 55.7527 15.1159 55.1685 14.8895C54.5844 14.6584 54.1451 14.2956 53.8507 13.8012C53.5564 13.3067 53.4137 12.6875 53.4228 11.9435V1.80919Z" fill="#5C5AEA"/>
</svg>
