<svg width="100" height="44" viewBox="0 0 100 44" fill="none" xmlns="http://www.w3.org/2000/svg">
<path d="M14.6761 41.1321C14.2614 41.1321 13.8878 41.0582 13.5554 40.9105C13.2258 40.76 12.9645 40.5384 12.7713 40.2458C12.581 39.9531 12.4858 39.5923 12.4858 39.1634C12.4858 38.794 12.554 38.4886 12.6903 38.2472C12.8267 38.0057 13.0128 37.8125 13.2486 37.6676C13.4844 37.5227 13.75 37.4134 14.0454 37.3395C14.3437 37.2628 14.652 37.2074 14.9702 37.1733C15.3537 37.1335 15.6648 37.098 15.9034 37.0668C16.142 37.0327 16.3153 36.9815 16.4233 36.9134C16.5341 36.8423 16.5895 36.733 16.5895 36.5852V36.5597C16.5895 36.2386 16.4943 35.9901 16.304 35.8139C16.1136 35.6378 15.8395 35.5497 15.4815 35.5497C15.1037 35.5497 14.804 35.6321 14.5824 35.7969C14.3636 35.9617 14.2159 36.1563 14.1392 36.3807L12.6989 36.1761C12.8125 35.7784 13 35.446 13.2614 35.179C13.5227 34.9091 13.8423 34.7074 14.2202 34.5739C14.598 34.4375 15.0156 34.3693 15.473 34.3693C15.7883 34.3693 16.1023 34.4063 16.4148 34.4801C16.7273 34.554 17.0128 34.6761 17.2713 34.8466C17.5298 35.0142 17.7372 35.2429 17.8935 35.5327C18.0526 35.8225 18.1321 36.1847 18.1321 36.6193V41H16.6491V40.1009H16.598C16.5043 40.2827 16.3722 40.4531 16.2017 40.6122C16.0341 40.7685 15.8224 40.8949 15.5668 40.9915C15.3139 41.0852 15.017 41.1321 14.6761 41.1321ZM15.0767 39.9986C15.3864 39.9986 15.6548 39.9375 15.8821 39.8154C16.1094 39.6904 16.2841 39.5256 16.4062 39.321C16.5312 39.1165 16.5937 38.8935 16.5937 38.652V37.8807C16.5454 37.9205 16.4631 37.9574 16.3466 37.9915C16.2329 38.0256 16.1051 38.0554 15.9631 38.081C15.821 38.1065 15.6804 38.1293 15.5412 38.1492C15.402 38.169 15.2812 38.1861 15.179 38.2003C14.9489 38.2315 14.7429 38.2827 14.5611 38.3537C14.3793 38.4247 14.2358 38.5242 14.1307 38.652C14.0256 38.777 13.973 38.9389 13.973 39.1378C13.973 39.4219 14.0767 39.6364 14.2841 39.7813C14.4915 39.9261 14.7557 39.9986 15.0767 39.9986Z" fill="#555555"/>
<path d="M25.5149 41.1279C24.8615 41.1279 24.3004 40.9844 23.8317 40.6975C23.3658 40.4105 23.0064 40.0142 22.7535 39.5085C22.5035 39 22.3785 38.4148 22.3785 37.7529C22.3785 37.0881 22.5064 36.5014 22.7621 35.9929C23.0177 35.4815 23.3785 35.0838 23.8445 34.7997C24.3132 34.5128 24.8672 34.3693 25.5064 34.3693C26.0376 34.3693 26.5078 34.4673 26.9169 34.6634C27.3288 34.8565 27.657 35.1307 27.9013 35.4858C28.1456 35.8381 28.2848 36.25 28.3189 36.7216H26.8445C26.7848 36.4063 26.6427 36.1435 26.4183 35.9333C26.1967 35.7202 25.8999 35.6136 25.5277 35.6136C25.2124 35.6136 24.9354 35.6989 24.6967 35.8693C24.4581 36.0369 24.272 36.2784 24.1385 36.5938C24.0078 36.9091 23.9425 37.2869 23.9425 37.7273C23.9425 38.1733 24.0078 38.5568 24.1385 38.8779C24.2692 39.196 24.4524 39.4418 24.6882 39.6151C24.9268 39.7855 25.2067 39.8708 25.5277 39.8708C25.755 39.8708 25.9581 39.8281 26.1371 39.7429C26.3189 39.6548 26.4709 39.5284 26.593 39.3636C26.7152 39.1989 26.799 38.9986 26.8445 38.7628H28.3189C28.282 39.2259 28.1456 39.6364 27.9098 39.9943C27.674 40.3494 27.353 40.6279 26.9467 40.8296C26.5405 41.0284 26.0632 41.1279 25.5149 41.1279Z" fill="#555555"/>
<path d="M31.1282 37.1648V41H29.5856V32.2727H31.0941V35.5668H31.1708C31.3242 35.1975 31.5614 34.9063 31.8825 34.6932C32.2063 34.4773 32.6182 34.3693 33.1182 34.3693C33.5728 34.3693 33.9691 34.4645 34.3072 34.6548C34.6452 34.8452 34.9066 35.1236 35.0913 35.4901C35.2788 35.8565 35.3725 36.304 35.3725 36.8324V41H33.8299V37.071C33.8299 36.6307 33.7163 36.2884 33.489 36.044C33.2646 35.7969 32.9492 35.6733 32.543 35.6733C32.2702 35.6733 32.0259 35.733 31.81 35.8523C31.5969 35.9688 31.4293 36.1378 31.3072 36.3594C31.1879 36.581 31.1282 36.8494 31.1282 37.1648Z" fill="#555555"/>
<path d="M38.8285 41.1321C38.4137 41.1321 38.0401 41.0582 37.7077 40.9105C37.3782 40.76 37.1168 40.5384 36.9236 40.2458C36.7333 39.9531 36.6381 39.5923 36.6381 39.1634C36.6381 38.794 36.7063 38.4886 36.8427 38.2472C36.979 38.0057 37.1651 37.8125 37.4009 37.6676C37.6367 37.5227 37.9023 37.4134 38.1978 37.3395C38.4961 37.2628 38.8043 37.2074 39.1225 37.1733C39.506 37.1335 39.8171 37.098 40.0557 37.0668C40.2944 37.0327 40.4677 36.9815 40.5756 36.9134C40.6864 36.8423 40.7418 36.733 40.7418 36.5852V36.5597C40.7418 36.2386 40.6467 35.9901 40.4563 35.8139C40.266 35.6378 39.9918 35.5497 39.6339 35.5497C39.256 35.5497 38.9563 35.6321 38.7347 35.7969C38.516 35.9617 38.3682 36.1563 38.2915 36.3807L36.8512 36.1761C36.9648 35.7784 37.1523 35.446 37.4137 35.179C37.6751 34.9091 37.9947 34.7074 38.3725 34.5739C38.7503 34.4375 39.168 34.3693 39.6254 34.3693C39.9407 34.3693 40.2546 34.4063 40.5671 34.4801C40.8796 34.554 41.1651 34.6761 41.4236 34.8466C41.6822 35.0142 41.8896 35.2429 42.0458 35.5327C42.2049 35.8225 42.2844 36.1847 42.2844 36.6193V41H40.8015V40.1009H40.7504C40.6566 40.2827 40.5245 40.4531 40.354 40.6122C40.1864 40.7685 39.9748 40.8949 39.7191 40.9915C39.4663 41.0852 39.1694 41.1321 38.8285 41.1321ZM39.229 39.9986C39.5387 39.9986 39.8072 39.9375 40.0344 39.8154C40.2617 39.6904 40.4364 39.5256 40.5586 39.321C40.6836 39.1165 40.7461 38.8935 40.7461 38.652V37.8807C40.6978 37.9205 40.6154 37.9574 40.4989 37.9915C40.3853 38.0256 40.2575 38.0554 40.1154 38.081C39.9734 38.1065 39.8327 38.1293 39.6935 38.1492C39.5543 38.169 39.4336 38.1861 39.3313 38.2003C39.1012 38.2315 38.8952 38.2827 38.7134 38.3537C38.5316 38.4247 38.3881 38.5242 38.283 38.652C38.1779 38.777 38.1254 38.9389 38.1254 39.1378C38.1254 39.4219 38.229 39.6364 38.4364 39.7813C38.6438 39.9261 38.908 39.9986 39.229 39.9986Z" fill="#555555"/>
<path d="M47.104 34.4546V35.6477H43.3413V34.4546H47.104ZM44.2702 32.8864H45.8129V39.0313C45.8129 39.2386 45.8441 39.3977 45.9066 39.5085C45.9719 39.6165 46.0572 39.6904 46.1623 39.7301C46.2674 39.7699 46.3839 39.7898 46.5117 39.7898C46.6083 39.7898 46.6964 39.7827 46.7759 39.7685C46.8583 39.7543 46.9208 39.7415 46.9634 39.7301L47.2234 40.9361C47.141 40.9645 47.0231 40.9958 46.8697 41.0298C46.7191 41.0639 46.5344 41.0838 46.3157 41.0895C45.9293 41.1009 45.5813 41.0426 45.2717 40.9148C44.962 40.7841 44.7163 40.5824 44.5344 40.3097C44.3555 40.0369 44.2674 39.696 44.2702 39.2869V32.8864Z" fill="#555555"/>
<path d="M50.2052 39.8068L50.1499 40.2756C50.1101 40.6335 50.0391 40.9972 49.9368 41.3665C49.8374 41.7386 49.7322 42.081 49.6214 42.3935C49.5106 42.706 49.4212 42.9517 49.353 43.1307H48.3132C48.353 42.9574 48.407 42.7216 48.4751 42.4233C48.5462 42.125 48.6143 41.7898 48.6797 41.4176C48.745 41.0455 48.7891 40.6676 48.8118 40.2841L48.8416 39.8068H50.2052Z" fill="#555555"/>
<path d="M57.9087 34.4546V35.6477H54.1459V34.4546H57.9087ZM55.0749 32.8864H56.6175V39.0313C56.6175 39.2386 56.6488 39.3977 56.7113 39.5085C56.7766 39.6165 56.8619 39.6904 56.967 39.7301C57.0721 39.7699 57.1886 39.7898 57.3164 39.7898C57.413 39.7898 57.5011 39.7827 57.5806 39.7685C57.663 39.7543 57.7255 39.7415 57.7681 39.7301L58.028 40.9361C57.9457 40.9645 57.8278 40.9958 57.6744 41.0298C57.5238 41.0639 57.3391 41.0838 57.1204 41.0895C56.734 41.1009 56.386 41.0426 56.0763 40.9148C55.7667 40.7841 55.5209 40.5824 55.3391 40.3097C55.1601 40.0369 55.0721 39.696 55.0749 39.2869V32.8864Z" fill="#555555"/>
<path d="M60.8821 37.1648V41H59.3395V32.2727H60.848V35.5668H60.9247C61.0781 35.1975 61.3153 34.9063 61.6364 34.6932C61.9602 34.4773 62.3722 34.3693 62.8722 34.3693C63.3267 34.3693 63.723 34.4645 64.0611 34.6548C64.3991 34.8452 64.6605 35.1236 64.8452 35.4901C65.0327 35.8565 65.1264 36.304 65.1264 36.8324V41H63.5838V37.071C63.5838 36.6307 63.4702 36.2884 63.2429 36.044C63.0185 35.7969 62.7031 35.6733 62.2969 35.6733C62.0241 35.6733 61.7798 35.733 61.5639 35.8523C61.3508 35.9688 61.1832 36.1378 61.0611 36.3594C60.9418 36.581 60.8821 36.8494 60.8821 37.1648Z" fill="#555555"/>
<path d="M68.5824 41.1321C68.1676 41.1321 67.794 41.0582 67.4616 40.9105C67.1321 40.76 66.8707 40.5384 66.6776 40.2458C66.4872 39.9531 66.392 39.5923 66.392 39.1634C66.392 38.794 66.4602 38.4886 66.5966 38.2472C66.7329 38.0057 66.919 37.8125 67.1548 37.6676C67.3906 37.5227 67.6562 37.4134 67.9517 37.3395C68.25 37.2628 68.5582 37.2074 68.8764 37.1733C69.2599 37.1335 69.571 37.098 69.8097 37.0668C70.0483 37.0327 70.2216 36.9815 70.3295 36.9134C70.4403 36.8423 70.4957 36.733 70.4957 36.5852V36.5597C70.4957 36.2386 70.4006 35.9901 70.2102 35.8139C70.0199 35.6378 69.7457 35.5497 69.3878 35.5497C69.0099 35.5497 68.7102 35.6321 68.4886 35.7969C68.2699 35.9617 68.1222 36.1563 68.0454 36.3807L66.6051 36.1761C66.7187 35.7784 66.9062 35.446 67.1676 35.179C67.429 34.9091 67.7486 34.7074 68.1264 34.5739C68.5043 34.4375 68.9219 34.3693 69.3793 34.3693C69.6946 34.3693 70.0085 34.4063 70.321 34.4801C70.6335 34.554 70.919 34.6761 71.1776 34.8466C71.4361 35.0142 71.6435 35.2429 71.7997 35.5327C71.9588 35.8225 72.0383 36.1847 72.0383 36.6193V41H70.5554V40.1009H70.5043C70.4105 40.2827 70.2784 40.4531 70.1079 40.6122C69.9403 40.7685 69.7287 40.8949 69.473 40.9915C69.2202 41.0852 68.9233 41.1321 68.5824 41.1321ZM68.9829 39.9986C69.2926 39.9986 69.5611 39.9375 69.7883 39.8154C70.0156 39.6904 70.1903 39.5256 70.3125 39.321C70.4375 39.1165 70.5 38.8935 70.5 38.652V37.8807C70.4517 37.9205 70.3693 37.9574 70.2528 37.9915C70.1392 38.0256 70.0114 38.0554 69.8693 38.081C69.7273 38.1065 69.5866 38.1293 69.4474 38.1492C69.3082 38.169 69.1875 38.1861 69.0852 38.2003C68.8551 38.2315 68.6491 38.2827 68.4673 38.3537C68.2855 38.4247 68.142 38.5242 68.0369 38.652C67.9318 38.777 67.8793 38.9389 67.8793 39.1378C67.8793 39.4219 67.9829 39.6364 68.1903 39.7813C68.3977 39.9261 68.6619 39.9986 68.9829 39.9986Z" fill="#555555"/>
<path d="M76.8579 34.4546V35.6477H73.0952V34.4546H76.8579ZM74.0241 32.8864H75.5668V39.0313C75.5668 39.2386 75.598 39.3977 75.6605 39.5085C75.7258 39.6165 75.8111 39.6904 75.9162 39.7301C76.0213 39.7699 76.1378 39.7898 76.2656 39.7898C76.3622 39.7898 76.4503 39.7827 76.5298 39.7685C76.6122 39.7543 76.6747 39.7415 76.7173 39.7301L76.9773 40.9361C76.8949 40.9645 76.777 40.9958 76.6236 41.0298C76.473 41.0639 76.2883 41.0838 76.0696 41.0895C75.6832 41.1009 75.3352 41.0426 75.0256 40.9148C74.7159 40.7841 74.4702 40.5824 74.2883 40.3097C74.1094 40.0369 74.0213 39.696 74.0241 39.2869V32.8864Z" fill="#555555"/>
<path d="M79.761 32.2727V33.1421C79.761 33.3921 79.7127 33.652 79.6161 33.9219C79.5224 34.1889 79.3931 34.4446 79.2283 34.6889C79.0636 34.9304 78.8761 35.1378 78.6658 35.3111L77.9499 34.8466C78.1062 34.6108 78.2425 34.3565 78.359 34.0838C78.4755 33.8082 78.5337 33.4972 78.5337 33.1506V32.2727H79.761Z" fill="#555555"/>
<path d="M85.337 36.1847L83.9307 36.3381C83.891 36.196 83.8214 36.0625 83.7219 35.9375C83.6253 35.8125 83.4947 35.7117 83.3299 35.635C83.1651 35.5582 82.9634 35.5199 82.7248 35.5199C82.4038 35.5199 82.1339 35.5895 81.9151 35.7287C81.6992 35.8679 81.5927 36.0483 81.5955 36.2699C81.5927 36.4602 81.6623 36.6151 81.8043 36.7344C81.9492 36.8537 82.1878 36.9517 82.5202 37.0284L83.6367 37.2671C84.256 37.4006 84.7163 37.6122 85.0174 37.902C85.3214 38.1918 85.4748 38.571 85.4776 39.0398C85.4748 39.4517 85.354 39.8154 85.1154 40.1307C84.8796 40.4432 84.5515 40.6875 84.131 40.8636C83.7106 41.0398 83.2276 41.1279 82.6822 41.1279C81.881 41.1279 81.2361 40.9602 80.7475 40.625C80.2589 40.2869 79.9677 39.8168 79.8739 39.2145L81.3782 39.0696C81.4464 39.3651 81.5913 39.5881 81.8128 39.7386C82.0344 39.8892 82.3228 39.9645 82.6779 39.9645C83.0444 39.9645 83.3384 39.8892 83.56 39.7386C83.7844 39.5881 83.8967 39.402 83.8967 39.1804C83.8967 38.9929 83.8242 38.8381 83.6793 38.7159C83.5373 38.5938 83.3157 38.5 83.0145 38.4347L81.8981 38.2003C81.2702 38.0696 80.8057 37.8494 80.5046 37.5398C80.2035 37.2273 80.0543 36.8324 80.0572 36.3551C80.0543 35.9517 80.1637 35.6023 80.3853 35.3068C80.6097 35.0085 80.9208 34.7784 81.3185 34.6165C81.7191 34.4517 82.1807 34.3693 82.7035 34.3693C83.4705 34.3693 84.0742 34.5327 84.5145 34.8594C84.9577 35.1861 85.2319 35.6279 85.337 36.1847Z" fill="#555555"/>
<path d="M89.7262 41V34.4546H91.2688V41H89.7262ZM90.5018 33.5256C90.2575 33.5256 90.0472 33.4446 89.8711 33.2827C89.6949 33.1179 89.6069 32.9205 89.6069 32.6904C89.6069 32.4574 89.6949 32.26 89.8711 32.098C90.0472 31.9332 90.2575 31.8509 90.5018 31.8509C90.7489 31.8509 90.9592 31.9332 91.1324 32.098C91.3086 32.26 91.3967 32.4574 91.3967 32.6904C91.3967 32.9205 91.3086 33.1179 91.1324 33.2827C90.9592 33.4446 90.7489 33.5256 90.5018 33.5256Z" fill="#555555"/>
<path d="M96.1236 34.4546V35.6477H92.3608V34.4546H96.1236ZM93.2898 32.8864H94.8324V39.0313C94.8324 39.2386 94.8636 39.3977 94.9261 39.5085C94.9915 39.6165 95.0767 39.6904 95.1818 39.7301C95.2869 39.7699 95.4034 39.7898 95.5312 39.7898C95.6278 39.7898 95.7159 39.7827 95.7954 39.7685C95.8778 39.7543 95.9403 39.7415 95.9829 39.7301L96.2429 40.9361C96.1605 40.9645 96.0426 40.9958 95.8892 41.0298C95.7386 41.0639 95.554 41.0838 95.3352 41.0895C94.9489 41.1009 94.6008 41.0426 94.2912 40.9148C93.9815 40.7841 93.7358 40.5824 93.554 40.3097C93.375 40.0369 93.2869 39.696 93.2898 39.2869V32.8864Z" fill="#555555"/>
<path d="M98.364 41.0938C98.1055 41.0938 97.8839 41.0029 97.6992 40.821C97.5146 40.6392 97.4236 40.4176 97.4265 40.1563C97.4236 39.9006 97.5146 39.6818 97.6992 39.5C97.8839 39.3182 98.1055 39.2273 98.364 39.2273C98.614 39.2273 98.8313 39.3182 99.016 39.5C99.2035 39.6818 99.2986 39.9006 99.3015 40.1563C99.2986 40.3296 99.2532 40.4872 99.1651 40.6293C99.0799 40.7713 98.9663 40.885 98.8242 40.9702C98.685 41.0526 98.5316 41.0938 98.364 41.0938Z" fill="#555555"/>
<path d="M2.87146 7.09091H7.56109V24.8367C7.56109 26.143 7.30423 27.1998 6.79049 28.0071C6.27676 28.8144 5.53919 29.4052 4.57778 29.7795C3.62371 30.1538 2.48249 30.3409 1.15413 30.3409C0.992672 30.3409 0.838553 30.3372 0.691773 30.3299C0.537653 30.3299 0.376195 30.3262 0.207397 30.3189V26.6531C0.332161 26.6604 0.442246 26.6641 0.537653 26.6641C0.625721 26.6714 0.721129 26.6751 0.823875 26.6751C1.57979 26.6751 2.1082 26.5136 2.4091 26.1907C2.71734 25.8751 2.87146 25.3981 2.87146 24.7596V7.09091ZM5.20527 4.91122C4.5154 4.91122 3.92094 4.68004 3.42189 4.21769C2.92283 3.74799 2.67331 3.18655 2.67331 2.53338C2.67331 1.88755 2.92283 1.33345 3.42189 0.871096C3.92094 0.401399 4.5154 0.16655 5.20527 0.16655C5.90981 0.16655 6.50794 0.401399 6.99966 0.871096C7.49871 1.33345 7.74824 1.88755 7.74824 2.53338C7.74824 3.18655 7.49871 3.74799 6.99966 4.21769C6.50794 4.68004 5.90981 4.91122 5.20527 4.91122Z" fill="#5C5AEA"/>
<path d="M19.1338 24.3082C17.299 24.3082 15.7285 23.945 14.4222 23.2184C13.1158 22.4845 12.114 21.4644 11.4168 20.158C10.7196 18.8443 10.371 17.3215 10.371 15.5895C10.371 13.8575 10.7196 12.3383 11.4168 11.032C12.114 9.71828 13.1158 8.69816 14.4222 7.97159C15.7285 7.23769 17.299 6.87074 19.1338 6.87074C20.7924 6.87074 22.2272 7.17164 23.4381 7.77344C24.6564 8.3679 25.5995 9.21189 26.2673 10.3054C26.9352 11.3916 27.2728 12.6686 27.2801 14.1364H21.6437C21.563 13.2483 21.3061 12.5732 20.8731 12.1108C20.4475 11.6411 19.8971 11.4063 19.2219 11.4063C18.6935 11.4063 18.2311 11.5604 17.8348 11.8686C17.4385 12.1695 17.1302 12.6282 16.9101 13.2447C16.6899 13.8538 16.5798 14.6207 16.5798 15.5455C16.5798 16.4702 16.6899 17.2408 16.9101 17.8572C17.1302 18.4664 17.4385 18.9251 17.8348 19.2333C18.2311 19.5342 18.6935 19.6847 19.2219 19.6847C19.6695 19.6847 20.0659 19.5819 20.4108 19.3764C20.7557 19.1636 21.0346 18.8554 21.2474 18.4517C21.4676 18.0407 21.5997 17.5417 21.6437 16.9545H27.2801C27.2581 18.4444 26.9168 19.7434 26.2563 20.8516C25.5958 21.9524 24.6601 22.8037 23.4491 23.4055C22.2455 24.0073 20.8071 24.3082 19.1338 24.3082Z" fill="#5C5AEA"/>
<path d="M35.864 14.4886V24H29.7873V1.45455H35.6438V10.3054H35.82C36.2016 9.22656 36.8364 8.38625 37.7244 7.78445C38.6125 7.17531 39.6803 6.87074 40.9279 6.87074C42.1242 6.87074 43.1627 7.14228 44.0433 7.68537C44.9314 8.22846 45.6176 8.97704 46.1019 9.93111C46.5936 10.8852 46.8358 11.9787 46.8285 13.2116V24H40.7518V14.4886C40.7591 13.652 40.55 12.9951 40.1243 12.5181C39.706 12.0411 39.1078 11.8026 38.3299 11.8026C37.8382 11.8026 37.4052 11.9126 37.0309 12.1328C36.664 12.3456 36.3777 12.6539 36.1722 13.0575C35.9741 13.4538 35.8713 13.9309 35.864 14.4886Z" fill="#5C5AEA"/>
<path d="M54.54 24.2642C53.4611 24.2642 52.5071 24.0881 51.6777 23.7358C50.8558 23.3762 50.2099 22.8331 49.7402 22.1065C49.2705 21.38 49.0357 20.4553 49.0357 19.3324C49.0357 18.4077 49.1935 17.6187 49.5091 16.9656C49.8246 16.305 50.265 15.7656 50.8301 15.3473C51.3952 14.929 52.052 14.6097 52.8006 14.3896C53.5565 14.1694 54.3712 14.0263 55.2445 13.9602C56.1912 13.8868 56.9508 13.7988 57.5233 13.696C58.1031 13.5859 58.5214 13.4355 58.7782 13.2447C59.0351 13.0465 59.1635 12.786 59.1635 12.4631V12.419C59.1635 11.9787 58.9947 11.6411 58.6572 11.4063C58.3196 11.1714 57.8866 11.054 57.3581 11.054C56.7784 11.054 56.305 11.1824 55.938 11.4393C55.5784 11.6888 55.3619 12.0741 55.2885 12.5952H49.6962C49.7696 11.5677 50.0962 10.621 50.676 9.75497C51.2631 8.88163 52.1181 8.18443 53.241 7.66336C54.3638 7.13495 55.7656 6.87074 57.4462 6.87074C58.6572 6.87074 59.7433 7.01385 60.7047 7.30007C61.6661 7.57896 62.4844 7.97159 63.1596 8.47798C63.8348 8.97704 64.3486 9.56416 64.7008 10.2393C65.0604 10.9072 65.2402 11.6338 65.2402 12.419V24H59.5598V21.6222H59.4277C59.0902 22.2533 58.6792 22.7634 58.1948 23.1523C57.7178 23.5413 57.171 23.8239 56.5545 24C55.9454 24.1761 55.2739 24.2642 54.54 24.2642ZM56.5215 20.4332C56.9839 20.4332 57.4169 20.3378 57.8205 20.147C58.2315 19.9562 58.5654 19.681 58.8223 19.3214C59.0791 18.9618 59.2076 18.5251 59.2076 18.0114V16.6023C59.0461 16.6683 58.8736 16.7307 58.6902 16.7894C58.514 16.8481 58.3232 16.9032 58.1177 16.9545C57.9196 17.0059 57.7067 17.0536 57.4792 17.0977C57.2591 17.1417 57.0279 17.1821 56.7857 17.2188C56.316 17.2921 55.9307 17.4132 55.6298 17.582C55.3362 17.7435 55.1161 17.9453 54.9693 18.1875C54.8299 18.4224 54.7601 18.6866 54.7601 18.9801C54.7601 19.4498 54.9253 19.8094 55.2555 20.059C55.5858 20.3085 56.0078 20.4332 56.5215 20.4332Z" fill="#5C5AEA"/>
<path d="M72.8554 24.2642C71.7766 24.2642 70.8225 24.0881 69.9932 23.7358C69.1712 23.3762 68.5254 22.8331 68.0557 22.1065C67.586 21.38 67.3511 20.4553 67.3511 19.3324C67.3511 18.4077 67.5089 17.6187 67.8245 16.9656C68.1401 16.305 68.5804 15.7656 69.1455 15.3473C69.7106 14.929 70.3675 14.6097 71.116 14.3896C71.872 14.1694 72.6866 14.0263 73.5599 13.9602C74.5067 13.8868 75.2663 13.7988 75.8387 13.696C76.4185 13.5859 76.8368 13.4355 77.0937 13.2447C77.3505 13.0465 77.479 12.786 77.479 12.4631V12.419C77.479 11.9787 77.3102 11.6411 76.9726 11.4063C76.635 11.1714 76.202 11.054 75.6736 11.054C75.0938 11.054 74.6204 11.1824 74.2535 11.4393C73.8939 11.6888 73.6774 12.0741 73.604 12.5952H68.0116C68.085 11.5677 68.4116 10.621 68.9914 9.75497C69.5785 8.88163 70.4335 8.18443 71.5564 7.66336C72.6793 7.13495 74.081 6.87074 75.7616 6.87074C76.9726 6.87074 78.0588 7.01385 79.0202 7.30007C79.9816 7.57896 80.7999 7.97159 81.4751 8.47798C82.1503 8.97704 82.664 9.56416 83.0163 10.2393C83.3759 10.9072 83.5557 11.6338 83.5557 12.419V24H77.8753V21.6222H77.7432C77.4056 22.2533 76.9946 22.7634 76.5102 23.1523C76.0332 23.5413 75.4864 23.8239 74.8699 24C74.2608 24.1761 73.5893 24.2642 72.8554 24.2642ZM74.8369 20.4332C75.2993 20.4332 75.7323 20.3378 76.1359 20.147C76.5469 19.9562 76.8808 19.681 77.1377 19.3214C77.3946 18.9618 77.523 18.5251 77.523 18.0114V16.6023C77.3615 16.6683 77.1891 16.7307 77.0056 16.7894C76.8295 16.8481 76.6387 16.9032 76.4332 16.9545C76.235 17.0059 76.0222 17.0536 75.7947 17.0977C75.5745 17.1417 75.3433 17.1821 75.1011 17.2188C74.6314 17.2921 74.2461 17.4132 73.9452 17.582C73.6517 17.7435 73.4315 17.9453 73.2847 18.1875C73.1453 18.4224 73.0756 18.6866 73.0756 18.9801C73.0756 19.4498 73.2407 19.8094 73.5709 20.059C73.9012 20.3085 74.3232 20.4332 74.8369 20.4332Z" fill="#5C5AEA"/>
<path d="M95.768 7.09091V11.4943H84.6273V7.09091H95.768ZM86.785 3.03977H92.8617V18.5618C92.8617 18.7966 92.9021 18.9948 92.9828 19.1563C93.0635 19.3104 93.1883 19.4278 93.3571 19.5085C93.5259 19.5819 93.7424 19.6186 94.0066 19.6186C94.1901 19.6186 94.4029 19.5966 94.6451 19.5526C94.8946 19.5085 95.0781 19.4718 95.1955 19.4425L96.0762 23.7138C95.8047 23.7945 95.4157 23.8936 94.9093 24.011C94.4103 24.1284 93.8158 24.2055 93.1259 24.2422C91.7315 24.3156 90.5609 24.1725 89.6142 23.8129C88.6675 23.4459 87.9556 22.8698 87.4786 22.0845C87.0015 21.2992 86.7703 20.3158 86.785 19.1342V3.03977Z" fill="#5C5AEA"/>
</svg>
